#!OML:ASF H:\Terrain\Patient Classification 1\Terrain2\Thursday\justin.ASF
:FULLY-SPECIFIED
:DEGREES
1037
root 18.8872 20.8346 -7.11174 539.374 -1.78112 540.023
lowerback 5.60744 -0.223274 -3.32646
upperback 1.9903 -0.563364 2.03149
thorax -1.04174 -0.344332 4.00348
lowerneck -13.9707 3.55782 -7.78881
upperneck 35.7299 4.06932 0.0317411
head 14.4635 -0.579442 1.69811
rclavicle -3.926e-015 6.75868e-015
rhumerus -36.3396 -21.8006 -72.9859
rradius 20.6269
rwrist -6.57668
rhand -19.1968 10.7741
rfingers 7.12502
rthumb 7.11515 -19.0862
lclavicle -3.926e-015 6.75868e-015
lhumerus -35.2334 9.59323 82.0513
lradius 33.4568
lwrist 5.83914
lhand -17.4986 20.8929
lfingers 7.12502
lthumb 8.75424 50.6913
rfemur -18.5618 -4.02083 16.1466
rtibia 54.9742
rfoot -13.6745 -4.32804
rtoes 3.19757
lfemur -11.3707 2.86735 -21.0576
ltibia 22.4502
lfoot -4.75591 -11.537
ltoes 17.6312
1038
root 18.9007 20.8304 -7.17858 539.581 -2.18157 540.252
lowerback 5.34332 -0.266495 -3.10189
upperback 2.01494 -0.602204 2.09649
thorax -0.86735 -0.367645 3.94245
lowerneck -13.7384 3.54537 -7.54114
upperneck 35.5796 4.08696 -0.353906
head 14.3632 -0.57987 1.49672
rclavicle 5.96354e-016 3.97569e-015
rhumerus -36.2193 -21.5973 -73.1208
rradius 20.7218
rwrist -6.57416
rhand -19.2456 10.9234
rfingers 7.12502
rthumb 7.0681 -18.9386
lclavicle 5.96354e-016 3.97569e-015
lhumerus -35.1394 8.73812 82.4427
lradius 34.4947
lwrist 5.13008
lhand -18.0184 22.5057
lfingers 7.12502
lthumb 8.25257 52.3245
rfemur -19.0669 -3.03249 16.2768
rtibia 53.4195
rfoot -14.203 -3.87737
rtoes 2.52988
lfemur -11.5869 2.88504 -20.772
ltibia 22.829
lfoot -5.28148 -12.0592
ltoes 16.6216
1039
root 18.9205 20.826 -7.24167 539.665 -2.75168 540.605
lowerback 5.32066 -0.310598 -2.7391
upperback 2.04476 -0.64644 2.16193
thorax -0.823722 -0.392188 3.80689
lowerneck -13.6954 3.48464 -7.51986
upperneck 35.5205 4.01666 -0.386589
head 14.3317 -0.598856 1.47061
rclavicle -4.77083e-015 5.1684e-015
rhumerus -36.0686 -21.6687 -73.1963
rradius 20.7285
rwrist -6.33776
rhand -19.2239 11.0227
rfingers 7.12502
rthumb 7.08903 -18.8386
lclavicle -4.77083e-015 5.1684e-015
lhumerus -34.7702 9.13067 81.8622
lradius 35.0698
lwrist 3.60844
lhand -14.2146 22.4587
lfingers 7.12502
lthumb 11.9222 52.0993
rfemur -19.3456 -2.04738 16.5339
rtibia 51.7985
rfoot -14.7877 -3.36118
rtoes 2.19063
lfemur -11.7114 3.24259 -20.3538
ltibia 23.1894
lfoot -5.70686 -12.8499
ltoes 14.2753
1040
root 18.9475 20.8116 -7.29885 539.669 -3.3168 540.373
lowerback 5.53545 -0.343382 -3.08948
upperback 2.03466 -0.711353 2.0988
thorax -0.944321 -0.4221 3.94683
lowerneck -13.5844 3.52135 -7.6357
upperneck 35.5245 3.99747 -0.0832925
head 14.2926 -0.574197 1.61142
rclavicle 5.46658e-016 2.8625e-014
rhumerus -35.9062 -21.8918 -73.1908
rradius 20.5849
rwrist -5.78123
rhand -19.2551 10.8451
rfingers 7.12502
rthumb 7.05888 -19.0172
lclavicle 5.46658e-016 2.8625e-014
lhumerus -34.5526 8.15016 82.2047
lradius 35.7832
lwrist 4.55622
lhand -15.7105 23.0344
lfingers 7.12502
lthumb 10.4795 52.7532
rfemur -19.4814 -0.85882 16.107
rtibia 50.1595
rfoot -15.615 -2.46363
rtoes 2.49767
lfemur -11.7415 3.30318 -20.5332
ltibia 23.541
lfoot -5.9923 -13.4144
ltoes 12.8822
1041
root 18.9726 20.796 -7.35458 539.773 -3.80821 539.989
lowerback 5.70515 -0.381367 -3.61226
upperback 1.99868 -0.790917 2.03818
thorax -1.06167 -0.457885 4.18807
lowerneck -13.4916 3.60167 -7.68023
upperneck 35.5013 4.103 -0.00571859
head 14.2509 -0.518228 1.6662
rclavicle -1.56543e-014 2.38542e-014
rhumerus -35.6024 -21.7684 -73.3165
rradius 20.3796
rwrist -5.48461
rhand -19.3594 10.8704
rfingers 7.12502
rthumb 6.95821 -18.9953
lclavicle -1.56543e-014 2.38542e-014
lhumerus -34.3116 7.49462 82.4952
lradius 36.3494
lwrist 5.42055
lhand -17.2665 23.013
lfingers 7.12502
lthumb 8.97815 52.802
rfemur -19.7151 0.621316 15.3994
rtibia 48.4976
rfoot -16.3888 -1.14001
rtoes 4.19802
lfemur -11.8683 2.82102 -20.8482
ltibia 23.8966
lfoot -6.05482 -13.5347
ltoes 14.4029
